HIERARCHY
ROOT Hips
{
	OFFSET 0.00000 0.00000 0.00000
	CHANNELS 6 Xposition Yposition Zposition Zrotation Yrotation Xrotation 
	JOINT LHipJoint
	{
		OFFSET 0 0 0
		CHANNELS 3 Zrotation Yrotation Xrotation
		JOINT LeftUpLeg
		{
			OFFSET 1.58895 -1.83665 0.71753
			CHANNELS 3 Zrotation Yrotation Xrotation
			JOINT LeftLeg
			{
				OFFSET 2.50528 -6.88321 0.00000
				CHANNELS 3 Zrotation Yrotation Xrotation
				JOINT LeftFoot
				{
					OFFSET 2.63244 -7.23257 0.00000
					CHANNELS 3 Zrotation Yrotation Xrotation
					JOINT LeftToeBase
					{
						OFFSET 0.23691 -0.65090 1.72750
						CHANNELS 3 Zrotation Yrotation Xrotation
						End Site
						{
							OFFSET 0.00000 -0.00000 0.92561
						}
					}
				}
			}
		}
	}
	JOINT RHipJoint
	{
		OFFSET 0 0 0
		CHANNELS 3 Zrotation Yrotation Xrotation
		JOINT RightUpLeg
		{
			OFFSET -1.51435 -1.83665 0.71753
			CHANNELS 3 Zrotation Yrotation Xrotation
			JOINT RightLeg
			{
				OFFSET -2.54551 -6.99375 0.00000
				CHANNELS 3 Zrotation Yrotation Xrotation
				JOINT RightFoot
				{
					OFFSET -2.66027 -7.30903 0.00000
					CHANNELS 3 Zrotation Yrotation Xrotation
					JOINT RightToeBase
					{
						OFFSET -0.22981 -0.63138 2.03959
						CHANNELS 3 Zrotation Yrotation Xrotation
						End Site
						{
							OFFSET -0.00000 -0.00000 1.07060
						}
					}
				}
			}
		}
	}
	JOINT LowerBack
	{
		OFFSET 0 0 0
		CHANNELS 3 Zrotation Yrotation Xrotation
		JOINT Spine
		{
			OFFSET -0.02651 1.86275 -0.11152
			CHANNELS 3 Zrotation Yrotation Xrotation
			JOINT Spine1
			{
				OFFSET 0.01019 1.86224 0.04087
				CHANNELS 3 Zrotation Yrotation Xrotation
				JOINT Neck
				{
					OFFSET 0 0 0
					CHANNELS 3 Zrotation Yrotation Xrotation
					JOINT Neck1
					{
						OFFSET -0.01926 1.80512 0.08867
						CHANNELS 3 Zrotation Yrotation Xrotation
						JOINT Head
						{
							OFFSET 0.05516 1.76451 -0.38475
							CHANNELS 3 Zrotation Yrotation Xrotation
							End Site
							{
								OFFSET 0.01592 1.82587 -0.14001
							}
						}
					}
				}
				JOINT LeftShoulder
				{
					OFFSET 0 0 0
					CHANNELS 3 Zrotation Yrotation Xrotation
					JOINT LeftArm
					{
						OFFSET 3.47116 1.51376 0.14491
						CHANNELS 3 Zrotation Yrotation Xrotation
						JOINT LeftForeArm
						{
							OFFSET 4.78095 -0.00000 0.00000
							CHANNELS 3 Zrotation Yrotation Xrotation
							JOINT LeftHand
							{
								OFFSET 3.58615 -0.00000 -0.00000
								CHANNELS 3 Zrotation Yrotation Xrotation
								JOINT LeftFingerBase
								{
									OFFSET 0 0 0
									CHANNELS 3 Zrotation Yrotation Xrotation
									JOINT LeftHandIndex1
									{
										OFFSET 0.65981 -0.00000 0.00000
										CHANNELS 3 Zrotation Yrotation Xrotation
										End Site
										{
											OFFSET 0.53196 -0.00000 0.00000
										}
									}
								}
								JOINT LThumb
								{
									OFFSET 0 0 0
									CHANNELS 3 Zrotation Yrotation Xrotation
									End Site
									{
										OFFSET 0.54008 -0.00000 0.54008
									}
								}
							}
						}
					}
				}
				JOINT RightShoulder
				{
					OFFSET 0 0 0
					CHANNELS 3 Zrotation Yrotation Xrotation
					JOINT RightArm
					{
						OFFSET -3.31725 1.61216 0.35156
						CHANNELS 3 Zrotation Yrotation Xrotation
						JOINT RightForeArm
						{
							OFFSET -4.48913 -0.00000 0.00000
							CHANNELS 3 Zrotation Yrotation Xrotation
							JOINT RightHand
							{
								OFFSET -3.70510 -0.00000 0.00000
								CHANNELS 3 Zrotation Yrotation Xrotation
								JOINT RightFingerBase
								{
									OFFSET 0 0 0
									CHANNELS 3 Zrotation Yrotation Xrotation
									JOINT RightHandIndex1
									{
										OFFSET -0.44914 -0.00000 0.00000
										CHANNELS 3 Zrotation Yrotation Xrotation
										End Site
										{
											OFFSET -0.36211 -0.00000 0.00000
										}
									}
								}
								JOINT RThumb
								{
									OFFSET 0 0 0
									CHANNELS 3 Zrotation Yrotation Xrotation
									End Site
									{
										OFFSET -0.36763 -0.00000 0.36763
									}
								}
							}
						}
					}
				}
			}
		}
	}
}
MOTION
Frames: 6
Frame Time: .0083333
-0.4883 18.7446 5.4352 -2.4851 -5.9883 3.1193 0.0000 0.0000 0.0000 -12.6746 -6.9234 -3.7353 1.4028 7.4921 21.1816 1.7281 8.4220 -29.0905 7.6989 -15.8933 -51.4708 0.0000 0.0000 0.0000 0.0000 0.0000 0.0000 0.0000 0.0000 0.0000 -0.0000 -0.0000 0.0000 -0.0000 -0.0000 0.0000 -4.6275 -0.6575 4.3860 -1.1020 -1.0893 1.4008 1.5165 -0.5454 -0.9524 4.0198 0.0196 -13.6818 2.5579 -2.1031 32.7090 -0.0280 -0.1285 13.2837 -0.0000 0.0000 0.0000 -42.0606 -27.1511 42.3503 65.1364 -57.5301 -38.6460 -0.0000 0.0000 -11.9794 -3.0756 -40.8002 2.0108 -7.1250 0.0000 -0.0000 -19.5087 -8.8416 23.5775 -0.0000 0.0000 0.0000 79.3227 14.3863 73.7148 -103.0036 59.3513 -71.2369 0.0000 0.0000 5.5152 -20.1071 -59.6541 17.5330 7.1250 -0.0000 -0.0000 87.1411 78.7593 98.5338
-0.4959 18.7452 5.4390 -2.4621 -6.1102 3.0707 0.0000 0.0000 0.0000 -12.6756 -6.8874 -3.5557 1.3921 7.4648 21.0998 1.7686 8.2498 -29.2451 7.7014 -15.8951 -51.4797 0.0000 0.0000 0.0000 0.0000 0.0000 0.0000 0.0000 0.0000 0.0000 -0.0000 -0.0000 0.0000 -0.0000 -0.0000 0.0000 -4.7296 -0.6140 4.4264 -0.9633 -1.0367 1.3930 1.7142 -0.5187 -0.9816 3.9503 -0.0490 -13.6796 2.4117 -2.1397 32.8038 -0.0785 -0.1702 13.3201 0.0000 -0.0000 0.0000 -40.8848 -26.9594 42.6128 64.9059 -57.4815 -38.4517 -0.0000 0.0000 -11.7608 -4.4054 -40.5872 2.8694 -7.1250 0.0000 -0.0000 -20.1431 -8.5542 24.3572 0.0000 -0.0000 0.0000 79.5651 14.1465 74.3789 -100.8115 59.5537 -69.3490 0.0000 0.0000 5.3801 -19.6122 -60.1103 17.1674 7.1250 -0.0000 -0.0000 88.6115 78.5212 100.2959
-0.4987 18.7459 5.4391 -2.4789 -6.2397 3.0063 0.0000 0.0000 0.0000 -12.6576 -6.8870 -3.3759 1.3860 7.4489 21.0522 1.8129 8.1040 -29.4415 7.6024 -15.8188 -51.1174 0.0000 0.0000 0.0000 0.0000 0.0000 0.0000 0.0000 0.0000 0.0000 -0.0000 -0.0000 0.0000 -0.0000 -0.0000 0.0000 -4.6860 -0.5578 4.4790 -0.8605 -0.9608 1.4256 1.7923 -0.4815 -0.9812 3.9305 -0.1077 -13.7010 2.2565 -2.1708 32.8440 -0.1406 -0.2054 13.3380 0.0000 0.0000 0.0000 -40.0681 -26.8782 43.0102 64.2239 -57.3343 -37.8770 -0.0000 0.0000 -11.2683 -4.7355 -40.6469 3.0887 -7.1250 0.0000 -0.0000 -20.3027 -8.5913 24.5867 0.0000 0.0000 0.0000 79.7742 14.0108 74.7044 -98.5106 59.7245 -67.3636 0.0000 0.0000 5.3987 -18.4429 -60.3872 16.1684 7.1250 -0.0000 -0.0000 88.4566 78.0972 100.5864
-0.4958 18.7448 5.4360 -2.4383 -6.3382 2.9373 0.0000 0.0000 0.0000 -12.7210 -6.7736 -3.3229 1.3843 7.4447 21.0396 1.8074 8.1582 -29.4400 7.6243 -15.8358 -51.1977 0.0000 0.0000 0.0000 0.0000 0.0000 0.0000 0.0000 0.0000 0.0000 -0.0000 -0.0000 0.0000 -0.0000 -0.0000 0.0000 -4.6163 -0.5114 4.5512 -0.7900 -0.8969 1.4982 1.8230 -0.4515 -0.9510 3.9065 -0.1483 -13.8292 2.1109 -2.1811 32.8451 -0.1957 -0.2303 13.3627 -0.0000 -0.0000 0.0000 -39.6449 -26.8733 43.4124 63.4632 -57.1643 -37.2373 -0.0000 0.0000 -10.7516 -4.8767 -40.9049 3.1977 -7.1250 0.0000 -0.0000 -20.3750 -8.8269 24.7561 -0.0000 -0.0000 0.0000 79.8289 14.1898 74.6981 -96.3364 59.8477 -65.4846 0.0000 0.0000 5.3783 -18.3959 -60.4474 16.1356 7.1250 -0.0000 -0.0000 88.6648 78.0722 100.8268
-0.4922 18.7433 5.4319 -2.3919 -6.3220 2.8810 0.0000 0.0000 0.0000 -12.7756 -6.6657 -3.3367 1.3848 7.4460 21.0436 1.7862 8.2053 -29.3319 7.6737 -15.8739 -51.3786 0.0000 0.0000 0.0000 0.0000 0.0000 0.0000 0.0000 0.0000 0.0000 -0.0000 -0.0000 0.0000 -0.0000 -0.0000 0.0000 -4.5092 -0.5058 4.6556 -0.7249 -0.8881 1.5501 1.8306 -0.4478 -0.9572 3.7440 -0.1920 -13.9362 2.0931 -2.1963 32.8165 -0.1771 -0.2584 13.3733 0.0000 -0.0000 0.0000 -39.6449 -26.8443 43.8998 62.9358 -57.0428 -36.7944 -0.0000 0.0000 -10.5729 -5.3260 -41.0662 3.5046 -7.1250 0.0000 -0.0000 -20.5920 -8.9544 25.0935 0.0000 -0.0000 0.0000 79.7298 14.4623 74.4525 -94.5938 59.9201 -63.9773 0.0000 0.0000 5.1843 -19.6227 -60.3043 17.2081 7.1250 -0.0000 -0.0000 89.4877 78.4893 101.2270
-0.4900 18.7421 5.4277 -2.3977 -6.2474 2.8494 0.0000 0.0000 0.0000 -12.7612 -6.6251 -3.3596 1.3857 7.4481 21.0499 1.7720 8.1817 -29.2236 7.6883 -15.8851 -51.4319 0.0000 0.0000 0.0000 0.0000 0.0000 0.0000 0.0000 0.0000 0.0000 -0.0000 -0.0000 0.0000 -0.0000 -0.0000 0.0000 -4.3124 -0.5204 4.7691 -0.6803 -0.9038 1.5621 1.7686 -0.4546 -1.0098 3.6348 -0.2214 -13.9831 2.0622 -2.1999 32.8318 -0.1708 -0.2764 13.3895 -0.0000 -0.0000 0.0000 -40.0089 -26.7537 44.5196 62.6078 -56.9657 -36.5193 -0.0000 0.0000 -10.6491 -5.3641 -40.8775 3.5164 -7.1250 0.0000 -0.0000 -20.6070 -8.7742 25.0604 -0.0000 -0.0000 0.0000 79.6319 14.5922 74.0290 -93.3404 59.9578 -62.8924 0.0000 0.0000 5.1317 -19.7604 -60.3693 17.3417 7.1250 -0.0000 -0.0000 89.9465 78.5202 101.6628
